inDegrees=yes
name=ik_S50_A13_T01
DataType=double
version=3
OpenSimVersion=4.3-2021-08-27-4bc7ad9
endheader
time	pelvis_tilt	pelvis_list	pelvis_rotation	pelvis_tx	pelvis_ty	pelvis_tz	hip_flexion_r	hip_adduction_r	hip_rotation_r	knee_angle_r	knee_angle_r_beta	ankle_angle_r	subtalar_angle_r	mtp_angle_r	hip_flexion_l	hip_adduction_l	hip_rotation_l	knee_angle_l	knee_angle_l_beta	ankle_angle_l	subtalar_angle_l	mtp_angle_l	lumbar_extension	lumbar_bending	lumbar_rotation	arm_flex_r	arm_add_r	arm_rot_r	elbow_flex_r	pro_sup_r	wrist_flex_r	wrist_dev_r	arm_flex_l	arm_add_l	arm_rot_l	elbow_flex_l	pro_sup_l	wrist_flex_l	wrist_dev_l
3.580000000000003	-0.3433326162100435	0.05665002781118888	26.64190370087912	0	0.9399999999999999	0	25.62157190719828	-8.658172629090856	-7.664617960495116	28.96171725976928	0.5054773232146438	0	0	0	25.62157190719828	-8.658172629090856	-7.664617960495116	28.96171725976928	0.5054773232146438	0	0	0	0.5416609729228185	1.151869818376432	8.920744230148927	77.89718106767928	-8.983426861117875	29.80837993551208	82.50021614264907	66.51540297444605	0	0	85.51152652364836	-6.508681718470606	31.58990812092738	12.67902091291428	112.5318841629986	0	0
3.600000000000003	-0.3543794460606197	0.08525268256122967	26.45416987652821	0	0.9399999999999999	0	25.64170422469691	-8.662696621394383	-7.669686612965058	28.98192463368642	0.5058300084226796	0	0	0	25.64170422469691	-8.662696621394383	-7.669686612965058	28.98192463368642	0.5058300084226796	0	0	0	0.5450530306430464	1.184607418084814	9.180048115311749	77.51031882150858	-9.982548539013969	29.85175602716281	85.59189148662065	66.42930087267523	0	0	85.64469709745251	-6.372487385620593	32.09421968830093	12.16086360697082	112.5190613852253	0	0
3.620000000000003	-0.3747106682175295	0.1001064704455025	26.40433731469544	0	0.9399999999999999	0	25.66031317562932	-8.666897059158455	-7.674386473482606	29.00049904197969	0.5061541930040069	0	0	0	25.66031317562932	-8.666897059158455	-7.674386473482606	29.00049904197969	0.5061541930040069	0	0	0	0.5328153010037662	1.207329207738545	9.259243604283261	77.22113505539892	-10.4798089963661	29.91828892006629	86.59927719680196	66.29902458419993	0	0	85.75440172809365	-6.285446958957555	32.59519045152028	11.71619114792989	112.3644071247332	0	0
3.640000000000003	-0.3994649364040315	0.1130754560436104	26.38305208746681	0	0.9399999999999999	0	25.68099001032062	-8.671528869661627	-7.679585664162079	29.02124050774718	0.5065161998733393	0	0	0	25.68099001032062	-8.671528869661627	-7.679585664162079	29.02124050774718	0.5065161998733393	0	0	0	0.5156480221581109	1.230330591072837	9.324370933010599	76.89596717232786	-11.05362852138065	30.06878183640105	88.07779225552069	66.08338487095203	0	0	85.81951458361047	-6.275473286046711	32.54945074443895	11.36990827332719	112.6778003424212	0	0
3.660000000000003	-0.4046092353090472	0.1169804798298986	26.32799398337762	0	0.9399999999999999	0	25.68715348404023	-8.672906312466585	-7.681133645438049	29.02742747601877	0.5066241828403949	0	0	0	25.68715348404023	-8.672906312466585	-7.681133645438049	29.02742747601877	0.5066241828403949	0	0	0	0.5123107305980887	1.236904328135658	9.401434618571962	76.37888255522086	-11.45731688809097	30.07898749744206	88.58370206104468	66.25758814306585	0	0	85.93402219683132	-6.15389401475288	32.93973193227539	10.81985283990598	112.6211081577585	0	0
3.680000000000003	-0.4160775515429173	0.1178320720800794	26.29479390734859	0	0.9399999999999999	0	25.70591223555171	-8.67707028493297	-7.685825994427164	29.04635140653128	0.5069544677352568	0	0	0	25.70591223555171	-8.67707028493297	-7.685825994427164	29.04635140653128	0.5069544677352568	0	0	0	0.5017425434558554	1.243056121072459	9.45147271981555	76.0468630231578	-12.22711679355286	30.35398478727232	91.0312541264767	65.8112950914972	0	0	86.03561324127462	-6.198609633106237	32.94429542627539	10.34896030175905	113.0698561159424	0	0
3.700000000000003	-0.4138318902713707	0.128274639030334	26.13669676491728	0	0.9399999999999999	0	25.72783888518244	-8.681975688564654	-7.691339902832024	29.06827741056676	0.5073371486974816	0	0	0	25.72783888518244	-8.681975688564654	-7.691339902832024	29.06827741056676	0.5073371486974816	0	0	0	0.5069086166720009	1.252750250930087	9.593692821126538	75.56648238345856	-12.89997536537253	30.71416462701957	92.60715098152201	65.79081833591047	0	0	86.35860609707072	-6.048149896003283	32.92574977651375	9.528081672562587	113.8623787498724	0	0
3.720000000000003	-0.4217857879161949	0.1237474935887768	26.11904642300521	0	0.9399999999999999	0	25.7491906804895	-8.686728207694527	-7.696694259258178	29.08968426777392	0.5077107688382506	0	0	0	25.7491906804895	-8.686728207694527	-7.696694259258178	29.08968426777392	0.5077107688382506	0	0	0	0.4965863357610432	1.252016809591986	9.584847520409966	75.03603585073763	-13.57937537035762	31.21929765110808	94.22345762613499	65.71286116743475	0	0	86.71177183574974	-6.13812482235094	32.81377148508412	8.325697698250888	115.6694764751142	0	0
3.740000000000003	-0.4251461238529373	0.1284831924155118	25.96448917556051	0	0.9399999999999999	0	25.76713797010461	-8.69072929026639	-7.701201085518436	29.1076195815124	0.5080237991153653	0	0	0	25.76713797010461	-8.69072929026639	-7.701201085518436	29.1076195815124	0.5080237991153653	0	0	0	0.4943825257972334	1.259016583580741	9.712334664958092	74.40007279209891	-14.19593652603688	31.68790966390013	95.39036871909343	65.85778674617359	0	0	87.06216479339503	-5.969121202849115	33.2173929570659	7.888505061482219	115.2840116147735	0	0
3.760000000000003	-0.4255258053652986	0.1240850499461739	25.91306855937314	0	0.9399999999999999	0	25.77892188904179	-8.693336108630694	-7.704146694355523	29.11946099167231	0.5082304707107349	0	0	0	25.77892188904179	-8.693336108630694	-7.704146694355523	29.11946099167231	0.5082304707107349	0	0	0	0.4914948224498727	1.255285126329815	9.74182694144231	73.78261891030891	-14.86342991426062	32.39116871809284	97.03832642787641	66.2079457097435	0	0	87.31570854832972	-6.040101559937732	33.59334037970082	7.247844556377421	115.2908625516128	0	0
3.780000000000003	-0.4477162116700073	0.1400208302383366	25.80875527660601	0	0.9399999999999999	0	25.7979347788375	-8.697563134867934	-7.708915701254908	29.1384539847531	0.5085619609748032	0	0	0	25.7979347788375	-8.697563134867934	-7.708915701254908	29.1384539847531	0.5085619609748032	0	0	0	0.4772893980591763	1.2796831409298	9.77169413493983	73.13831026081689	-15.49658229761086	32.89159154216355	98.27046299147348	66.30979497619069	0	0	87.39863116827733	-6.174571936971336	33.55137346683412	6.867381143139458	115.7018670858521	0	0
3.800000000000003	-0.4552711482697052	0.1501085796181432	25.74538495610698	0	0.9399999999999999	0	25.81697106751287	-8.701767651037368	-7.713672650852733	29.1575485471	0.5088952239569838	0	0	0	25.81697106751287	-8.701767651037368	-7.713672650852733	29.1575485471	0.5088952239569838	0	0	0	0.4736612891706733	1.292502874505828	9.802777361603003	72.51837987774726	-16.29243841522575	33.5233608560842	100.0278566903539	66.59753089003202	0	0	87.79560510019937	-6.381623357861288	34.00393038083983	6.363893640433923	115.8704463563863	0	0
3.820000000000003	-0.4609003215922509	0.1622817040624243	25.6205039668332	0	0.9399999999999999	0	25.83345618436461	-8.705411183135084	-7.717795241769887	29.17404761979137	0.5091831870989743	0	0	0	25.83345618436461	-8.705411183135084	-7.717795241769887	29.17404761979137	0.5091831870989743	0	0	0	0.4726926585088313	1.306925156373245	9.878278644566441	71.80838020195287	-17.06149194184089	33.92810302094417	101.3204937905544	66.74659946920055	0	0	87.99667458803501	-6.554672208798379	34.23127033259278	5.945118511275773	116.0739502119597	0	0
3.840000000000003	-0.479911334036388	0.1835447564711218	25.63898217212959	0	0.9399999999999999	0	25.83834468237461	-8.706471625061557	-7.719003838477764	29.17901500256162	0.5092698842835218	0	0	0	25.83834468237461	-8.706471625061557	-7.719003838477764	29.17901500256162	0.5092698842835218	0	0	0	0.4649072396103853	1.333142877311606	9.769624832057994	71.92037340425034	-17.04631911317129	34.26145302179374	101.7466314851623	66.99740576031985	0	0	88.15021464417727	-6.764220288916558	34.45367510451825	5.669346571943807	116.0426850512404	0	0
3.860000000000003	-0.4873210997731913	0.2011621692078238	25.52347457317389	0	0.9399999999999999	0	25.85625972432086	-8.71042756926804	-7.723483379376168	29.19692274883436	0.5095824334175929	0	0	0	25.85625972432086	-8.71042756926804	-7.723483379376168	29.19692274883436	0.5095824334175929	0	0	0	0.4646069282890935	1.352504970494169	9.80736205558958	71.27043869286388	-17.74749082924731	34.87134899411556	103.1133739137916	67.32179240418364	0	0	88.21001178769367	-6.877209695041797	34.45344443836816	5.313136773945454	116.3143201617289	0	0
3.880000000000003	-0.5054889607288112	0.2145035136380053	25.54083094527254	0	0.9399999999999999	0	25.86214086596809	-8.711711663629513	-7.7249439562673	29.20285267782326	0.5096859302028588	0	0	0	25.86214086596809	-8.711711663629513	-7.7249439562673	29.20285267782326	0.5096859302028588	0	0	0	0.4541141678119925	1.371279111699875	9.708857087508109	71.37324412313092	-17.7494060269198	35.20454908537908	103.4942651535791	67.44587285029934	0	0	88.52274512922932	-7.08691609220701	34.58700461590632	4.943029070476081	116.4345139024709	0	0
3.900000000000003	-0.5069766439971892	0.2252413007427179	25.55889915667969	0	0.9399999999999999	0	25.87844301773191	-8.7153001811667	-7.729014071156085	29.21915752517137	0.5099705034731183	0	0	0	25.87844301773191	-8.7153001811667	-7.729014071156085	29.21915752517137	0.5099705034731183	0	0	0	0.4571226550024674	1.380501250049667	9.646681881661879	71.48204863559428	-17.82905055905886	35.50701713770118	103.9885888957434	67.26371698427103	0	0	88.66461411790893	-7.172883779227236	34.57982457455911	4.587352101423184	116.6274247373212	0	0
3.920000000000003	-0.5203843696227274	0.246330354171224	25.45323127265121	0	0.9399999999999999	0	26.07964858943471	-8.746462494789096	-7.769933853107963	29.47184020310082	0.5143806481657436	0	0	0	26.07964858943471	-8.746462494789096	-7.769933853107963	29.47184020310082	0.5143806481657436	0	0	0	0.4478228673659911	1.399096871166253	9.719603131398603	68.91918822080395	-19.52905642363033	36.96657153280771	105.9060880655384	69.13854081257452	0	0	88.76206845369168	-7.288912925789498	34.52035190224538	4.432207410407799	116.6223746957144	0	0
